<mxfile host="app.diagrams.net" modified="2023-05-15T05:53:37.615Z" agent="Mozilla/5.0 (Windows NT 10.0; Win64; x64) AppleWebKit/537.36 (KHTML, like Gecko) Chrome/113.0.0.0 Safari/537.36" etag="ZKozt0bRw2IiY9GzaP4F" version="21.3.0" type="github" pages="2">
  <diagram name="Page-1" id="c37626ed-c26b-45fb-9056-f9ebc6bb27b6">
    <mxGraphModel dx="1434" dy="756" grid="1" gridSize="10" guides="1" tooltips="1" connect="1" arrows="1" fold="1" page="1" pageScale="1" pageWidth="1100" pageHeight="850" background="none" math="0" shadow="0">
      <root>
        <mxCell id="0" />
        <mxCell id="1" parent="0" />
        <mxCell id="1c7a67bf8fd3230f-83" value="Group 1" style="whiteSpace=wrap;html=1;rounded=0;shadow=0;comic=0;strokeWidth=1;fontFamily=Verdana;fontSize=14;fillColor=#f5f5f5;strokeColor=none;verticalAlign=top;fontStyle=1" parent="1" vertex="1">
          <mxGeometry x="460" y="246" width="1240" height="440" as="geometry" />
        </mxCell>
        <mxCell id="1c7a67bf8fd3230f-82" value="Group 4" style="whiteSpace=wrap;html=1;rounded=0;shadow=0;comic=0;strokeWidth=1;fontFamily=Verdana;fontSize=14;fillColor=#f5f5f5;strokeColor=none;fontStyle=1;verticalAlign=top;" parent="1" vertex="1">
          <mxGeometry x="1370" y="839" width="370" height="587" as="geometry" />
        </mxCell>
        <mxCell id="1c7a67bf8fd3230f-81" value="Group 3" style="whiteSpace=wrap;html=1;rounded=0;shadow=0;comic=0;strokeWidth=1;fontFamily=Verdana;fontSize=14;fillColor=#f5f5f5;strokeColor=none;fontStyle=1;verticalAlign=top;" parent="1" vertex="1">
          <mxGeometry x="910" y="838.9999999999999" width="432" height="587" as="geometry" />
        </mxCell>
        <mxCell id="1c7a67bf8fd3230f-80" value="Group 2" style="whiteSpace=wrap;html=1;rounded=0;shadow=0;comic=0;strokeWidth=1;fontFamily=Verdana;fontSize=14;fillColor=#f5f5f5;strokeColor=none;fontStyle=1;verticalAlign=top;" parent="1" vertex="1">
          <mxGeometry x="506" y="839" width="384" height="587" as="geometry" />
        </mxCell>
        <mxCell id="1c7a67bf8fd3230f-37" style="edgeStyle=none;html=1;labelBackgroundColor=none;startFill=0;endArrow=none;endFill=0;strokeWidth=2;fontFamily=Verdana;fontSize=12;" parent="1" source="1c7a67bf8fd3230f-1" target="1c7a67bf8fd3230f-5" edge="1">
          <mxGeometry relative="1" as="geometry" />
        </mxCell>
        <mxCell id="1c7a67bf8fd3230f-1" value="Route&lt;div&gt;Switch&lt;/div&gt;&lt;div&gt;Processor&lt;/div&gt;" style="shape=mxgraph.cisco.misc.route_switch_processor;html=1;dashed=0;fillColor=#036897;strokeColor=#ffffff;strokeWidth=2;verticalLabelPosition=bottom;verticalAlign=top;rounded=0;shadow=0;comic=0;fontFamily=Verdana;fontSize=12;" parent="1" vertex="1">
          <mxGeometry x="710" y="306" width="64" height="86" as="geometry" />
        </mxCell>
        <mxCell id="1c7a67bf8fd3230f-38" style="edgeStyle=none;html=1;labelBackgroundColor=none;startFill=0;endArrow=none;endFill=0;strokeWidth=2;fontFamily=Verdana;fontSize=12;" parent="1" source="1c7a67bf8fd3230f-2" target="1c7a67bf8fd3230f-5" edge="1">
          <mxGeometry relative="1" as="geometry" />
        </mxCell>
        <mxCell id="1c7a67bf8fd3230f-2" value="Route&lt;div&gt;Switch&lt;/div&gt;&lt;div&gt;Processor&lt;/div&gt;" style="shape=mxgraph.cisco.misc.route_switch_processor;html=1;dashed=0;fillColor=#036897;strokeColor=#ffffff;strokeWidth=2;verticalLabelPosition=bottom;verticalAlign=top;rounded=0;shadow=0;comic=0;fontFamily=Verdana;fontSize=12;" parent="1" vertex="1">
          <mxGeometry x="908" y="306" width="64" height="86" as="geometry" />
        </mxCell>
        <mxCell id="1c7a67bf8fd3230f-39" style="edgeStyle=none;html=1;labelBackgroundColor=none;startFill=0;endArrow=none;endFill=0;strokeWidth=2;fontFamily=Verdana;fontSize=12;" parent="1" source="1c7a67bf8fd3230f-3" target="1c7a67bf8fd3230f-5" edge="1">
          <mxGeometry relative="1" as="geometry" />
        </mxCell>
        <mxCell id="1c7a67bf8fd3230f-3" value="Route&lt;div&gt;Switch&lt;/div&gt;&lt;div&gt;Processor&lt;/div&gt;" style="shape=mxgraph.cisco.misc.route_switch_processor;html=1;dashed=0;fillColor=#036897;strokeColor=#ffffff;strokeWidth=2;verticalLabelPosition=bottom;verticalAlign=top;rounded=0;shadow=0;comic=0;fontFamily=Verdana;fontSize=12;" parent="1" vertex="1">
          <mxGeometry x="1110" y="306" width="64" height="86" as="geometry" />
        </mxCell>
        <mxCell id="1c7a67bf8fd3230f-40" style="edgeStyle=none;html=1;labelBackgroundColor=none;startFill=0;endArrow=none;endFill=0;strokeWidth=2;fontFamily=Verdana;fontSize=12;" parent="1" source="1c7a67bf8fd3230f-4" target="1c7a67bf8fd3230f-5" edge="1">
          <mxGeometry relative="1" as="geometry" />
        </mxCell>
        <mxCell id="1c7a67bf8fd3230f-4" value="Route&lt;div&gt;Switch&lt;/div&gt;&lt;div&gt;Processor&lt;/div&gt;" style="shape=mxgraph.cisco.misc.route_switch_processor;html=1;dashed=0;fillColor=#036897;strokeColor=#ffffff;strokeWidth=2;verticalLabelPosition=bottom;verticalAlign=top;rounded=0;shadow=0;comic=0;fontFamily=Verdana;fontSize=12;" parent="1" vertex="1">
          <mxGeometry x="1340" y="306" width="64" height="86" as="geometry" />
        </mxCell>
        <mxCell id="1c7a67bf8fd3230f-41" style="edgeStyle=none;html=1;labelBackgroundColor=none;startFill=0;endArrow=none;endFill=0;strokeWidth=2;fontFamily=Verdana;fontSize=12;" parent="1" source="1c7a67bf8fd3230f-5" target="1c7a67bf8fd3230f-7" edge="1">
          <mxGeometry relative="1" as="geometry" />
        </mxCell>
        <mxCell id="1c7a67bf8fd3230f-45" style="edgeStyle=none;html=1;labelBackgroundColor=none;startFill=0;endArrow=none;endFill=0;strokeWidth=2;fontFamily=Verdana;fontSize=12;" parent="1" source="1c7a67bf8fd3230f-5" target="1c7a67bf8fd3230f-6" edge="1">
          <mxGeometry relative="1" as="geometry" />
        </mxCell>
        <mxCell id="1c7a67bf8fd3230f-49" style="edgeStyle=none;html=1;labelBackgroundColor=none;startFill=0;endArrow=none;endFill=0;strokeWidth=2;fontFamily=Verdana;fontSize=12;" parent="1" source="1c7a67bf8fd3230f-5" target="1c7a67bf8fd3230f-46" edge="1">
          <mxGeometry relative="1" as="geometry" />
        </mxCell>
        <mxCell id="1c7a67bf8fd3230f-50" style="edgeStyle=none;html=1;labelBackgroundColor=none;startFill=0;endArrow=none;endFill=0;strokeWidth=2;fontFamily=Verdana;fontSize=12;" parent="1" source="1c7a67bf8fd3230f-5" target="1c7a67bf8fd3230f-47" edge="1">
          <mxGeometry relative="1" as="geometry" />
        </mxCell>
        <mxCell id="1c7a67bf8fd3230f-5" value="Route&lt;div&gt;Switch&lt;/div&gt;&lt;div&gt;Processor&lt;/div&gt;" style="shape=mxgraph.cisco.misc.route_switch_processor;html=1;dashed=0;fillColor=#036897;strokeColor=#ffffff;strokeWidth=2;verticalLabelPosition=bottom;verticalAlign=top;rounded=0;shadow=0;comic=0;fontFamily=Verdana;fontSize=12;" parent="1" vertex="1">
          <mxGeometry x="1020" y="476" width="64" height="86" as="geometry" />
        </mxCell>
        <mxCell id="1c7a67bf8fd3230f-64" style="edgeStyle=none;html=1;labelBackgroundColor=none;startFill=0;endArrow=none;endFill=0;strokeWidth=2;fontFamily=Verdana;fontSize=12;" parent="1" source="1c7a67bf8fd3230f-6" target="1c7a67bf8fd3230f-9" edge="1">
          <mxGeometry relative="1" as="geometry" />
        </mxCell>
        <mxCell id="1c7a67bf8fd3230f-65" style="edgeStyle=none;html=1;labelBackgroundColor=none;startFill=0;endArrow=none;endFill=0;strokeWidth=2;fontFamily=Verdana;fontSize=12;" parent="1" source="1c7a67bf8fd3230f-6" target="1c7a67bf8fd3230f-8" edge="1">
          <mxGeometry relative="1" as="geometry" />
        </mxCell>
        <mxCell id="1c7a67bf8fd3230f-6" value="" style="shape=mxgraph.cisco.switches.content_switch;html=1;dashed=0;fillColor=#036897;strokeColor=#ffffff;strokeWidth=2;verticalLabelPosition=bottom;verticalAlign=top;rounded=0;shadow=0;comic=0;fontFamily=Verdana;fontSize=12;" parent="1" vertex="1">
          <mxGeometry x="710" y="476" width="64" height="86" as="geometry" />
        </mxCell>
        <mxCell id="1c7a67bf8fd3230f-42" style="edgeStyle=none;html=1;labelBackgroundColor=none;startFill=0;endArrow=none;endFill=0;strokeWidth=2;fontFamily=Verdana;fontSize=12;" parent="1" source="1c7a67bf8fd3230f-7" target="1c7a67bf8fd3230f-10" edge="1">
          <mxGeometry relative="1" as="geometry" />
        </mxCell>
        <mxCell id="1c7a67bf8fd3230f-7" value="" style="shape=mxgraph.cisco.switches.content_switch;html=1;dashed=0;fillColor=#036897;strokeColor=#ffffff;strokeWidth=2;verticalLabelPosition=bottom;verticalAlign=top;rounded=0;shadow=0;comic=0;fontFamily=Verdana;fontSize=12;" parent="1" vertex="1">
          <mxGeometry x="1240" y="476" width="64" height="86" as="geometry" />
        </mxCell>
        <mxCell id="1c7a67bf8fd3230f-8" value="" style="shape=mxgraph.cisco.storage.cisco_file_engine;html=1;dashed=0;fillColor=#036897;strokeColor=#ffffff;strokeWidth=2;verticalLabelPosition=bottom;verticalAlign=top;rounded=0;shadow=0;comic=0;fontFamily=Verdana;fontSize=12;" parent="1" vertex="1">
          <mxGeometry x="500" y="572" width="90" height="64" as="geometry" />
        </mxCell>
        <mxCell id="1c7a67bf8fd3230f-9" value="" style="shape=mxgraph.cisco.misc.me1100;html=1;dashed=0;fillColor=#036897;strokeColor=#ffffff;strokeWidth=2;verticalLabelPosition=bottom;verticalAlign=top;rounded=0;shadow=0;comic=0;fontFamily=Verdana;fontSize=12;" parent="1" vertex="1">
          <mxGeometry x="500" y="471" width="91" height="48" as="geometry" />
        </mxCell>
        <mxCell id="1c7a67bf8fd3230f-43" style="edgeStyle=none;html=1;labelBackgroundColor=none;startFill=0;endArrow=none;endFill=0;strokeWidth=2;fontFamily=Verdana;fontSize=12;" parent="1" source="1c7a67bf8fd3230f-10" target="1c7a67bf8fd3230f-11" edge="1">
          <mxGeometry relative="1" as="geometry" />
        </mxCell>
        <mxCell id="1c7a67bf8fd3230f-44" style="edgeStyle=none;html=1;labelBackgroundColor=none;startFill=0;endArrow=none;endFill=0;strokeWidth=2;fontFamily=Verdana;fontSize=12;" parent="1" source="1c7a67bf8fd3230f-10" target="1c7a67bf8fd3230f-12" edge="1">
          <mxGeometry relative="1" as="geometry" />
        </mxCell>
        <mxCell id="1c7a67bf8fd3230f-51" style="edgeStyle=none;html=1;labelBackgroundColor=none;startFill=0;endArrow=none;endFill=0;strokeWidth=2;fontFamily=Verdana;fontSize=12;" parent="1" source="1c7a67bf8fd3230f-10" target="1c7a67bf8fd3230f-48" edge="1">
          <mxGeometry relative="1" as="geometry" />
        </mxCell>
        <mxCell id="1c7a67bf8fd3230f-10" value="" style="shape=mxgraph.cisco.security.ios_firewall;html=1;dashed=0;fillColor=#036897;strokeColor=#ffffff;strokeWidth=2;verticalLabelPosition=bottom;verticalAlign=top;rounded=0;shadow=0;comic=0;fontFamily=Verdana;fontSize=12;" parent="1" vertex="1">
          <mxGeometry x="1372" y="486" width="40" height="66" as="geometry" />
        </mxCell>
        <mxCell id="1c7a67bf8fd3230f-11" value="" style="shape=mxgraph.cisco.servers.server_with_router;html=1;dashed=0;fillColor=#036897;strokeColor=#ffffff;strokeWidth=2;verticalLabelPosition=bottom;verticalAlign=top;rounded=0;shadow=0;comic=0;fontFamily=Verdana;fontSize=12;" parent="1" vertex="1">
          <mxGeometry x="1460" y="431" width="38" height="64" as="geometry" />
        </mxCell>
        <mxCell id="1c7a67bf8fd3230f-12" value="" style="shape=mxgraph.cisco.servers.server_with_router;html=1;dashed=0;fillColor=#036897;strokeColor=#ffffff;strokeWidth=2;verticalLabelPosition=bottom;verticalAlign=top;rounded=0;shadow=0;comic=0;fontFamily=Verdana;fontSize=12;" parent="1" vertex="1">
          <mxGeometry x="1511" y="530" width="38" height="64" as="geometry" />
        </mxCell>
        <mxCell id="1c7a67bf8fd3230f-56" style="edgeStyle=none;html=1;labelBackgroundColor=none;startFill=0;endArrow=none;endFill=0;strokeWidth=2;fontFamily=Verdana;fontSize=12;" parent="1" source="1c7a67bf8fd3230f-13" target="1c7a67bf8fd3230f-16" edge="1">
          <mxGeometry relative="1" as="geometry" />
        </mxCell>
        <mxCell id="1c7a67bf8fd3230f-61" style="edgeStyle=none;html=1;labelBackgroundColor=none;startFill=0;endArrow=none;endFill=0;strokeWidth=2;fontFamily=Verdana;fontSize=12;" parent="1" source="1c7a67bf8fd3230f-13" target="1c7a67bf8fd3230f-17" edge="1">
          <mxGeometry relative="1" as="geometry" />
        </mxCell>
        <mxCell id="1c7a67bf8fd3230f-62" style="edgeStyle=none;html=1;labelBackgroundColor=none;startFill=0;endArrow=none;endFill=0;strokeWidth=2;fontFamily=Verdana;fontSize=12;" parent="1" source="1c7a67bf8fd3230f-13" target="1c7a67bf8fd3230f-18" edge="1">
          <mxGeometry relative="1" as="geometry" />
        </mxCell>
        <mxCell id="1c7a67bf8fd3230f-13" value="LAN" style="ellipse;shape=cloud;whiteSpace=wrap;html=1;rounded=0;shadow=0;comic=0;strokeWidth=1;fontFamily=Verdana;fontSize=12;" parent="1" vertex="1">
          <mxGeometry x="830" y="696" width="120" height="80" as="geometry" />
        </mxCell>
        <mxCell id="1c7a67bf8fd3230f-57" style="edgeStyle=none;html=1;labelBackgroundColor=none;startFill=0;endArrow=none;endFill=0;strokeWidth=2;fontFamily=Verdana;fontSize=12;" parent="1" source="1c7a67bf8fd3230f-14" target="1c7a67bf8fd3230f-17" edge="1">
          <mxGeometry relative="1" as="geometry" />
        </mxCell>
        <mxCell id="1c7a67bf8fd3230f-63" style="edgeStyle=none;html=1;labelBackgroundColor=none;startFill=0;endArrow=none;endFill=0;strokeWidth=2;fontFamily=Verdana;fontSize=12;" parent="1" source="1c7a67bf8fd3230f-14" target="1c7a67bf8fd3230f-18" edge="1">
          <mxGeometry relative="1" as="geometry" />
        </mxCell>
        <mxCell id="1c7a67bf8fd3230f-14" value="Cloud" style="ellipse;shape=cloud;whiteSpace=wrap;html=1;rounded=0;shadow=0;comic=0;strokeWidth=1;fontFamily=Verdana;fontSize=12;" parent="1" vertex="1">
          <mxGeometry x="1114" y="696" width="120" height="80" as="geometry" />
        </mxCell>
        <mxCell id="1c7a67bf8fd3230f-15" value="Internet" style="ellipse;shape=cloud;whiteSpace=wrap;html=1;rounded=0;shadow=0;comic=0;strokeWidth=1;fontFamily=Verdana;fontSize=12;" parent="1" vertex="1">
          <mxGeometry x="1554" y="696" width="120" height="80" as="geometry" />
        </mxCell>
        <mxCell id="1c7a67bf8fd3230f-66" style="edgeStyle=none;html=1;labelBackgroundColor=none;startFill=0;endArrow=none;endFill=0;strokeWidth=2;fontFamily=Verdana;fontSize=12;" parent="1" source="1c7a67bf8fd3230f-16" target="1c7a67bf8fd3230f-21" edge="1">
          <mxGeometry relative="1" as="geometry" />
        </mxCell>
        <mxCell id="1c7a67bf8fd3230f-16" value="" style="shape=mxgraph.cisco.misc.route_switch_processor;html=1;dashed=0;fillColor=#036897;strokeColor=#ffffff;strokeWidth=2;verticalLabelPosition=bottom;verticalAlign=top;rounded=0;shadow=0;comic=0;fontFamily=Verdana;fontSize=12;" parent="1" vertex="1">
          <mxGeometry x="810" y="856" width="64" height="86" as="geometry" />
        </mxCell>
        <mxCell id="1c7a67bf8fd3230f-60" style="edgeStyle=none;html=1;labelBackgroundColor=none;startFill=0;endArrow=none;endFill=0;strokeWidth=2;fontFamily=Verdana;fontSize=12;" parent="1" source="1c7a67bf8fd3230f-17" target="1c7a67bf8fd3230f-24" edge="1">
          <mxGeometry relative="1" as="geometry" />
        </mxCell>
        <mxCell id="1c7a67bf8fd3230f-69" style="edgeStyle=none;html=1;labelBackgroundColor=none;startFill=0;endArrow=none;endFill=0;strokeWidth=2;fontFamily=Verdana;fontSize=12;" parent="1" source="1c7a67bf8fd3230f-17" target="1c7a67bf8fd3230f-22" edge="1">
          <mxGeometry relative="1" as="geometry" />
        </mxCell>
        <mxCell id="1c7a67bf8fd3230f-70" style="edgeStyle=none;html=1;labelBackgroundColor=none;startFill=0;endArrow=none;endFill=0;strokeWidth=2;fontFamily=Verdana;fontSize=12;" parent="1" source="1c7a67bf8fd3230f-17" target="1c7a67bf8fd3230f-23" edge="1">
          <mxGeometry relative="1" as="geometry" />
        </mxCell>
        <mxCell id="1c7a67bf8fd3230f-17" value="" style="shape=mxgraph.cisco.misc.route_switch_processor;html=1;dashed=0;fillColor=#036897;strokeColor=#ffffff;strokeWidth=2;verticalLabelPosition=bottom;verticalAlign=top;rounded=0;shadow=0;comic=0;fontFamily=Verdana;fontSize=12;" parent="1" vertex="1">
          <mxGeometry x="1150" y="856" width="64" height="86" as="geometry" />
        </mxCell>
        <mxCell id="1c7a67bf8fd3230f-59" style="edgeStyle=none;html=1;labelBackgroundColor=none;startFill=0;endArrow=none;endFill=0;strokeWidth=2;fontFamily=Verdana;fontSize=12;" parent="1" source="1c7a67bf8fd3230f-18" target="1c7a67bf8fd3230f-27" edge="1">
          <mxGeometry relative="1" as="geometry" />
        </mxCell>
        <mxCell id="1c7a67bf8fd3230f-18" value="" style="shape=mxgraph.cisco.misc.route_switch_processor;html=1;dashed=0;fillColor=#036897;strokeColor=#ffffff;strokeWidth=2;verticalLabelPosition=bottom;verticalAlign=top;rounded=0;shadow=0;comic=0;fontFamily=Verdana;fontSize=12;" parent="1" vertex="1">
          <mxGeometry x="1438" y="856" width="64" height="86" as="geometry" />
        </mxCell>
        <mxCell id="1c7a67bf8fd3230f-19" value="" style="shape=mxgraph.cisco.misc.me1100;html=1;dashed=0;fillColor=#036897;strokeColor=#ffffff;strokeWidth=2;verticalLabelPosition=bottom;verticalAlign=top;rounded=0;shadow=0;comic=0;fontFamily=Verdana;fontSize=12;" parent="1" vertex="1">
          <mxGeometry x="520" y="1016" width="91" height="48" as="geometry" />
        </mxCell>
        <mxCell id="1c7a67bf8fd3230f-20" value="" style="shape=mxgraph.cisco.storage.cisco_file_engine;html=1;dashed=0;fillColor=#036897;strokeColor=#ffffff;strokeWidth=2;verticalLabelPosition=bottom;verticalAlign=top;rounded=0;shadow=0;comic=0;fontFamily=Verdana;fontSize=12;" parent="1" vertex="1">
          <mxGeometry x="521" y="1116" width="90" height="64" as="geometry" />
        </mxCell>
        <mxCell id="1c7a67bf8fd3230f-67" style="edgeStyle=none;html=1;labelBackgroundColor=none;startFill=0;endArrow=none;endFill=0;strokeWidth=2;fontFamily=Verdana;fontSize=12;" parent="1" source="1c7a67bf8fd3230f-21" target="1c7a67bf8fd3230f-19" edge="1">
          <mxGeometry relative="1" as="geometry" />
        </mxCell>
        <mxCell id="1c7a67bf8fd3230f-68" style="edgeStyle=none;html=1;labelBackgroundColor=none;startFill=0;endArrow=none;endFill=0;strokeWidth=2;fontFamily=Verdana;fontSize=12;" parent="1" source="1c7a67bf8fd3230f-21" target="1c7a67bf8fd3230f-20" edge="1">
          <mxGeometry relative="1" as="geometry" />
        </mxCell>
        <mxCell id="1c7a67bf8fd3230f-78" style="edgeStyle=none;html=1;labelBackgroundColor=none;startFill=0;endArrow=none;endFill=0;strokeWidth=2;fontFamily=Verdana;fontSize=12;" parent="1" source="1c7a67bf8fd3230f-21" target="1c7a67bf8fd3230f-29" edge="1">
          <mxGeometry relative="1" as="geometry" />
        </mxCell>
        <mxCell id="1c7a67bf8fd3230f-79" style="edgeStyle=none;html=1;labelBackgroundColor=none;startFill=0;endArrow=none;endFill=0;strokeWidth=2;fontFamily=Verdana;fontSize=12;" parent="1" source="1c7a67bf8fd3230f-21" target="1c7a67bf8fd3230f-28" edge="1">
          <mxGeometry relative="1" as="geometry" />
        </mxCell>
        <mxCell id="1c7a67bf8fd3230f-21" value="" style="shape=mxgraph.cisco.misc.route_switch_processor;html=1;dashed=0;fillColor=#036897;strokeColor=#ffffff;strokeWidth=2;verticalLabelPosition=bottom;verticalAlign=top;rounded=0;shadow=0;comic=0;fontFamily=Verdana;fontSize=12;" parent="1" vertex="1">
          <mxGeometry x="764" y="997" width="64" height="86" as="geometry" />
        </mxCell>
        <mxCell id="1c7a67bf8fd3230f-22" value="" style="shape=mxgraph.cisco.misc.me1100;html=1;dashed=0;fillColor=#036897;strokeColor=#ffffff;strokeWidth=2;verticalLabelPosition=bottom;verticalAlign=top;rounded=0;shadow=0;comic=0;fontFamily=Verdana;fontSize=12;" parent="1" vertex="1">
          <mxGeometry x="930" y="1026" width="91" height="48" as="geometry" />
        </mxCell>
        <mxCell id="1c7a67bf8fd3230f-23" value="" style="shape=mxgraph.cisco.storage.cisco_file_engine;html=1;dashed=0;fillColor=#036897;strokeColor=#ffffff;strokeWidth=2;verticalLabelPosition=bottom;verticalAlign=top;rounded=0;shadow=0;comic=0;fontFamily=Verdana;fontSize=12;" parent="1" vertex="1">
          <mxGeometry x="931" y="1126" width="90" height="64" as="geometry" />
        </mxCell>
        <mxCell id="1c7a67bf8fd3230f-75" style="edgeStyle=none;html=1;labelBackgroundColor=none;startFill=0;endArrow=none;endFill=0;strokeWidth=2;fontFamily=Verdana;fontSize=12;" parent="1" source="1c7a67bf8fd3230f-24" target="1c7a67bf8fd3230f-33" edge="1">
          <mxGeometry relative="1" as="geometry" />
        </mxCell>
        <mxCell id="1c7a67bf8fd3230f-76" style="edgeStyle=none;html=1;labelBackgroundColor=none;startFill=0;endArrow=none;endFill=0;strokeWidth=2;fontFamily=Verdana;fontSize=12;" parent="1" source="1c7a67bf8fd3230f-24" target="1c7a67bf8fd3230f-32" edge="1">
          <mxGeometry relative="1" as="geometry" />
        </mxCell>
        <mxCell id="1c7a67bf8fd3230f-77" style="edgeStyle=none;html=1;labelBackgroundColor=none;startFill=0;endArrow=none;endFill=0;strokeWidth=2;fontFamily=Verdana;fontSize=12;" parent="1" source="1c7a67bf8fd3230f-24" target="1c7a67bf8fd3230f-31" edge="1">
          <mxGeometry relative="1" as="geometry" />
        </mxCell>
        <mxCell id="1c7a67bf8fd3230f-24" value="" style="shape=mxgraph.cisco.misc.route_switch_processor;html=1;dashed=0;fillColor=#036897;strokeColor=#ffffff;strokeWidth=2;verticalLabelPosition=bottom;verticalAlign=top;rounded=0;shadow=0;comic=0;fontFamily=Verdana;fontSize=12;" parent="1" vertex="1">
          <mxGeometry x="1174" y="1007" width="64" height="86" as="geometry" />
        </mxCell>
        <mxCell id="1c7a67bf8fd3230f-25" value="" style="shape=mxgraph.cisco.misc.me1100;html=1;dashed=0;fillColor=#036897;strokeColor=#ffffff;strokeWidth=2;verticalLabelPosition=bottom;verticalAlign=top;rounded=0;shadow=0;comic=0;fontFamily=Verdana;fontSize=12;" parent="1" vertex="1">
          <mxGeometry x="1392" y="1026" width="91" height="48" as="geometry" />
        </mxCell>
        <mxCell id="1c7a67bf8fd3230f-26" value="" style="shape=mxgraph.cisco.storage.cisco_file_engine;html=1;dashed=0;fillColor=#036897;strokeColor=#ffffff;strokeWidth=2;verticalLabelPosition=bottom;verticalAlign=top;rounded=0;shadow=0;comic=0;fontFamily=Verdana;fontSize=12;" parent="1" vertex="1">
          <mxGeometry x="1380" y="1136" width="90" height="64" as="geometry" />
        </mxCell>
        <mxCell id="1c7a67bf8fd3230f-71" style="edgeStyle=none;html=1;labelBackgroundColor=none;startFill=0;endArrow=none;endFill=0;strokeWidth=2;fontFamily=Verdana;fontSize=12;" parent="1" source="1c7a67bf8fd3230f-27" target="1c7a67bf8fd3230f-25" edge="1">
          <mxGeometry relative="1" as="geometry" />
        </mxCell>
        <mxCell id="1c7a67bf8fd3230f-72" style="edgeStyle=none;html=1;labelBackgroundColor=none;startFill=0;endArrow=none;endFill=0;strokeWidth=2;fontFamily=Verdana;fontSize=12;" parent="1" source="1c7a67bf8fd3230f-27" target="1c7a67bf8fd3230f-26" edge="1">
          <mxGeometry relative="1" as="geometry" />
        </mxCell>
        <mxCell id="1c7a67bf8fd3230f-73" style="edgeStyle=none;html=1;labelBackgroundColor=none;startFill=0;endArrow=none;endFill=0;strokeWidth=2;fontFamily=Verdana;fontSize=12;" parent="1" source="1c7a67bf8fd3230f-27" target="1c7a67bf8fd3230f-35" edge="1">
          <mxGeometry relative="1" as="geometry" />
        </mxCell>
        <mxCell id="1c7a67bf8fd3230f-74" style="edgeStyle=none;html=1;labelBackgroundColor=none;startFill=0;endArrow=none;endFill=0;strokeWidth=2;fontFamily=Verdana;fontSize=12;" parent="1" source="1c7a67bf8fd3230f-27" target="1c7a67bf8fd3230f-34" edge="1">
          <mxGeometry relative="1" as="geometry" />
        </mxCell>
        <mxCell id="1c7a67bf8fd3230f-27" value="" style="shape=mxgraph.cisco.misc.route_switch_processor;html=1;dashed=0;fillColor=#036897;strokeColor=#ffffff;strokeWidth=2;verticalLabelPosition=bottom;verticalAlign=top;rounded=0;shadow=0;comic=0;fontFamily=Verdana;fontSize=12;" parent="1" vertex="1">
          <mxGeometry x="1560" y="1007" width="64" height="86" as="geometry" />
        </mxCell>
        <mxCell id="1c7a67bf8fd3230f-28" value="" style="shape=mxgraph.cisco.misc.route_switch_processor;html=1;dashed=0;fillColor=#036897;strokeColor=#ffffff;strokeWidth=2;verticalLabelPosition=bottom;verticalAlign=top;rounded=0;shadow=0;comic=0;fontFamily=Verdana;fontSize=12;" parent="1" vertex="1">
          <mxGeometry x="678" y="1316" width="64" height="86" as="geometry" />
        </mxCell>
        <mxCell id="1c7a67bf8fd3230f-29" value="" style="shape=mxgraph.cisco.misc.route_switch_processor;html=1;dashed=0;fillColor=#036897;strokeColor=#ffffff;strokeWidth=2;verticalLabelPosition=bottom;verticalAlign=top;rounded=0;shadow=0;comic=0;fontFamily=Verdana;fontSize=12;" parent="1" vertex="1">
          <mxGeometry x="778" y="1316" width="64" height="86" as="geometry" />
        </mxCell>
        <mxCell id="1c7a67bf8fd3230f-31" value="" style="shape=mxgraph.cisco.misc.route_switch_processor;html=1;dashed=0;fillColor=#036897;strokeColor=#ffffff;strokeWidth=2;verticalLabelPosition=bottom;verticalAlign=top;rounded=0;shadow=0;comic=0;fontFamily=Verdana;fontSize=12;" parent="1" vertex="1">
          <mxGeometry x="1050" y="1316" width="64" height="86" as="geometry" />
        </mxCell>
        <mxCell id="1c7a67bf8fd3230f-32" value="" style="shape=mxgraph.cisco.misc.route_switch_processor;html=1;dashed=0;fillColor=#036897;strokeColor=#ffffff;strokeWidth=2;verticalLabelPosition=bottom;verticalAlign=top;rounded=0;shadow=0;comic=0;fontFamily=Verdana;fontSize=12;" parent="1" vertex="1">
          <mxGeometry x="1150" y="1316" width="64" height="86" as="geometry" />
        </mxCell>
        <mxCell id="1c7a67bf8fd3230f-33" value="" style="shape=mxgraph.cisco.misc.route_switch_processor;html=1;dashed=0;fillColor=#036897;strokeColor=#ffffff;strokeWidth=2;verticalLabelPosition=bottom;verticalAlign=top;rounded=0;shadow=0;comic=0;fontFamily=Verdana;fontSize=12;" parent="1" vertex="1">
          <mxGeometry x="1271" y="1316" width="64" height="86" as="geometry" />
        </mxCell>
        <mxCell id="1c7a67bf8fd3230f-34" value="" style="shape=mxgraph.cisco.misc.route_switch_processor;html=1;dashed=0;fillColor=#036897;strokeColor=#ffffff;strokeWidth=2;verticalLabelPosition=bottom;verticalAlign=top;rounded=0;shadow=0;comic=0;fontFamily=Verdana;fontSize=12;" parent="1" vertex="1">
          <mxGeometry x="1522" y="1316" width="64" height="86" as="geometry" />
        </mxCell>
        <mxCell id="1c7a67bf8fd3230f-35" value="" style="shape=mxgraph.cisco.misc.route_switch_processor;html=1;dashed=0;fillColor=#036897;strokeColor=#ffffff;strokeWidth=2;verticalLabelPosition=bottom;verticalAlign=top;rounded=0;shadow=0;comic=0;fontFamily=Verdana;fontSize=12;" parent="1" vertex="1">
          <mxGeometry x="1624" y="1316" width="64" height="86" as="geometry" />
        </mxCell>
        <mxCell id="1c7a67bf8fd3230f-55" style="edgeStyle=none;html=1;labelBackgroundColor=none;startFill=0;endArrow=none;endFill=0;strokeWidth=2;fontFamily=Verdana;fontSize=12;" parent="1" source="1c7a67bf8fd3230f-46" target="1c7a67bf8fd3230f-13" edge="1">
          <mxGeometry relative="1" as="geometry" />
        </mxCell>
        <mxCell id="1c7a67bf8fd3230f-46" value="" style="shape=mxgraph.cisco.routers.router;html=1;dashed=0;fillColor=#036897;strokeColor=#ffffff;strokeWidth=2;verticalLabelPosition=bottom;verticalAlign=top;rounded=0;shadow=0;comic=0;fontFamily=Verdana;fontSize=12;" parent="1" vertex="1">
          <mxGeometry x="880" y="626" width="78" height="53" as="geometry" />
        </mxCell>
        <mxCell id="1c7a67bf8fd3230f-54" style="edgeStyle=none;html=1;labelBackgroundColor=none;startFill=0;endArrow=none;endFill=0;strokeWidth=2;fontFamily=Verdana;fontSize=12;" parent="1" source="1c7a67bf8fd3230f-47" target="1c7a67bf8fd3230f-14" edge="1">
          <mxGeometry relative="1" as="geometry" />
        </mxCell>
        <mxCell id="1c7a67bf8fd3230f-47" value="" style="shape=mxgraph.cisco.routers.router;html=1;dashed=0;fillColor=#036897;strokeColor=#ffffff;strokeWidth=2;verticalLabelPosition=bottom;verticalAlign=top;rounded=0;shadow=0;comic=0;fontFamily=Verdana;fontSize=12;" parent="1" vertex="1">
          <mxGeometry x="1128" y="616" width="78" height="53" as="geometry" />
        </mxCell>
        <mxCell id="1c7a67bf8fd3230f-52" style="edgeStyle=none;html=1;labelBackgroundColor=none;startFill=0;endArrow=none;endFill=0;strokeWidth=2;fontFamily=Verdana;fontSize=12;" parent="1" source="1c7a67bf8fd3230f-48" target="1c7a67bf8fd3230f-15" edge="1">
          <mxGeometry relative="1" as="geometry" />
        </mxCell>
        <mxCell id="1c7a67bf8fd3230f-48" value="" style="shape=mxgraph.cisco.routers.router;html=1;dashed=0;fillColor=#036897;strokeColor=#ffffff;strokeWidth=2;verticalLabelPosition=bottom;verticalAlign=top;rounded=0;shadow=0;comic=0;fontFamily=Verdana;fontSize=12;" parent="1" vertex="1">
          <mxGeometry x="1412" y="619" width="78" height="53" as="geometry" />
        </mxCell>
      </root>
    </mxGraphModel>
  </diagram>
  <diagram id="Qsa5-R9iFdR1Oi6kNcyM" name="第 2 页">
    <mxGraphModel dx="2049" dy="1000" grid="1" gridSize="10" guides="1" tooltips="1" connect="1" arrows="1" fold="1" page="1" pageScale="1" pageWidth="827" pageHeight="1169" math="0" shadow="0">
      <root>
        <mxCell id="0" />
        <mxCell id="1" parent="0" />
        <mxCell id="9NoPIzX4P5AbC4MqPLXt-27" style="rounded=0;orthogonalLoop=1;jettySize=auto;html=1;endArrow=none;endFill=0;" edge="1" parent="1" source="9NoPIzX4P5AbC4MqPLXt-1" target="9NoPIzX4P5AbC4MqPLXt-15">
          <mxGeometry relative="1" as="geometry" />
        </mxCell>
        <mxCell id="9NoPIzX4P5AbC4MqPLXt-1" value="" style="image;html=1;image=img/lib/clip_art/computers/Server_128x128.png;flipV=0;" vertex="1" parent="1">
          <mxGeometry y="430" width="80" height="80" as="geometry" />
        </mxCell>
        <mxCell id="9NoPIzX4P5AbC4MqPLXt-2" value="" style="image;html=1;image=img/lib/clip_art/computers/Server_128x128.png" vertex="1" parent="1">
          <mxGeometry x="90" y="430" width="80" height="80" as="geometry" />
        </mxCell>
        <mxCell id="9NoPIzX4P5AbC4MqPLXt-3" value="" style="image;html=1;image=img/lib/clip_art/computers/Server_128x128.png" vertex="1" parent="1">
          <mxGeometry x="180" y="430" width="80" height="80" as="geometry" />
        </mxCell>
        <mxCell id="9NoPIzX4P5AbC4MqPLXt-4" value="" style="image;html=1;image=img/lib/clip_art/computers/Server_128x128.png" vertex="1" parent="1">
          <mxGeometry x="270" y="430" width="80" height="80" as="geometry" />
        </mxCell>
        <mxCell id="9NoPIzX4P5AbC4MqPLXt-5" value="" style="image;html=1;image=img/lib/clip_art/computers/Server_128x128.png" vertex="1" parent="1">
          <mxGeometry x="360" y="430" width="80" height="80" as="geometry" />
        </mxCell>
        <mxCell id="9NoPIzX4P5AbC4MqPLXt-6" value="" style="image;html=1;image=img/lib/clip_art/computers/Server_128x128.png" vertex="1" parent="1">
          <mxGeometry x="450" y="430" width="80" height="80" as="geometry" />
        </mxCell>
        <mxCell id="9NoPIzX4P5AbC4MqPLXt-7" value="" style="image;html=1;image=img/lib/clip_art/computers/Server_128x128.png" vertex="1" parent="1">
          <mxGeometry x="540" y="430" width="80" height="80" as="geometry" />
        </mxCell>
        <mxCell id="9NoPIzX4P5AbC4MqPLXt-8" value="" style="image;html=1;image=img/lib/clip_art/computers/Server_128x128.png" vertex="1" parent="1">
          <mxGeometry x="630" y="430" width="80" height="80" as="geometry" />
        </mxCell>
        <mxCell id="9NoPIzX4P5AbC4MqPLXt-9" value="" style="image;html=1;image=img/lib/clip_art/computers/Server_128x128.png" vertex="1" parent="1">
          <mxGeometry x="720" y="430" width="80" height="80" as="geometry" />
        </mxCell>
        <mxCell id="9NoPIzX4P5AbC4MqPLXt-10" value="" style="image;html=1;image=img/lib/clip_art/computers/Server_128x128.png" vertex="1" parent="1">
          <mxGeometry x="810" y="430" width="80" height="80" as="geometry" />
        </mxCell>
        <mxCell id="9NoPIzX4P5AbC4MqPLXt-11" value="" style="image;html=1;image=img/lib/clip_art/computers/Server_128x128.png" vertex="1" parent="1">
          <mxGeometry x="900" y="430" width="80" height="80" as="geometry" />
        </mxCell>
        <mxCell id="9NoPIzX4P5AbC4MqPLXt-12" value="" style="image;html=1;image=img/lib/clip_art/computers/Server_128x128.png" vertex="1" parent="1">
          <mxGeometry x="990" y="430" width="80" height="80" as="geometry" />
        </mxCell>
        <mxCell id="9NoPIzX4P5AbC4MqPLXt-13" value="" style="image;html=1;image=img/lib/clip_art/computers/Server_128x128.png" vertex="1" parent="1">
          <mxGeometry x="1080" y="430" width="80" height="80" as="geometry" />
        </mxCell>
        <mxCell id="9NoPIzX4P5AbC4MqPLXt-14" value="" style="image;html=1;image=img/lib/clip_art/computers/Server_128x128.png" vertex="1" parent="1">
          <mxGeometry x="1170" y="430" width="80" height="80" as="geometry" />
        </mxCell>
        <mxCell id="9NoPIzX4P5AbC4MqPLXt-58" style="rounded=0;orthogonalLoop=1;jettySize=auto;html=1;endArrow=none;endFill=0;" edge="1" parent="1" source="9NoPIzX4P5AbC4MqPLXt-15" target="9NoPIzX4P5AbC4MqPLXt-57">
          <mxGeometry relative="1" as="geometry" />
        </mxCell>
        <mxCell id="9NoPIzX4P5AbC4MqPLXt-62" style="rounded=0;orthogonalLoop=1;jettySize=auto;html=1;endArrow=none;endFill=0;" edge="1" parent="1" source="9NoPIzX4P5AbC4MqPLXt-15" target="9NoPIzX4P5AbC4MqPLXt-61">
          <mxGeometry relative="1" as="geometry" />
        </mxCell>
        <mxCell id="9NoPIzX4P5AbC4MqPLXt-15" value="" style="image;html=1;image=img/lib/clip_art/networking/Switch_128x128.png" vertex="1" parent="1">
          <mxGeometry x="510" y="710" width="80" height="80" as="geometry" />
        </mxCell>
        <mxCell id="9NoPIzX4P5AbC4MqPLXt-29" style="rounded=0;orthogonalLoop=1;jettySize=auto;html=1;endArrow=none;endFill=0;" edge="1" parent="1" source="9NoPIzX4P5AbC4MqPLXt-2" target="9NoPIzX4P5AbC4MqPLXt-15">
          <mxGeometry relative="1" as="geometry">
            <mxPoint x="71" y="520" as="sourcePoint" />
            <mxPoint x="109" y="595" as="targetPoint" />
          </mxGeometry>
        </mxCell>
        <mxCell id="9NoPIzX4P5AbC4MqPLXt-30" style="rounded=0;orthogonalLoop=1;jettySize=auto;html=1;endArrow=none;endFill=0;" edge="1" parent="1" source="9NoPIzX4P5AbC4MqPLXt-3" target="9NoPIzX4P5AbC4MqPLXt-15">
          <mxGeometry relative="1" as="geometry">
            <mxPoint x="81" y="530" as="sourcePoint" />
            <mxPoint x="119" y="605" as="targetPoint" />
          </mxGeometry>
        </mxCell>
        <mxCell id="9NoPIzX4P5AbC4MqPLXt-31" style="rounded=0;orthogonalLoop=1;jettySize=auto;html=1;endArrow=none;endFill=0;" edge="1" parent="1" source="9NoPIzX4P5AbC4MqPLXt-4" target="9NoPIzX4P5AbC4MqPLXt-15">
          <mxGeometry relative="1" as="geometry">
            <mxPoint x="91" y="540" as="sourcePoint" />
            <mxPoint x="129" y="615" as="targetPoint" />
          </mxGeometry>
        </mxCell>
        <mxCell id="9NoPIzX4P5AbC4MqPLXt-32" style="rounded=0;orthogonalLoop=1;jettySize=auto;html=1;endArrow=none;endFill=0;" edge="1" parent="1" source="9NoPIzX4P5AbC4MqPLXt-5" target="9NoPIzX4P5AbC4MqPLXt-15">
          <mxGeometry relative="1" as="geometry">
            <mxPoint x="101" y="550" as="sourcePoint" />
            <mxPoint x="139" y="625" as="targetPoint" />
          </mxGeometry>
        </mxCell>
        <mxCell id="9NoPIzX4P5AbC4MqPLXt-33" style="rounded=0;orthogonalLoop=1;jettySize=auto;html=1;endArrow=none;endFill=0;" edge="1" parent="1" source="9NoPIzX4P5AbC4MqPLXt-6" target="9NoPIzX4P5AbC4MqPLXt-15">
          <mxGeometry relative="1" as="geometry">
            <mxPoint x="111" y="560" as="sourcePoint" />
            <mxPoint x="149" y="635" as="targetPoint" />
          </mxGeometry>
        </mxCell>
        <mxCell id="9NoPIzX4P5AbC4MqPLXt-34" style="rounded=0;orthogonalLoop=1;jettySize=auto;html=1;endArrow=none;endFill=0;" edge="1" parent="1" source="9NoPIzX4P5AbC4MqPLXt-7" target="9NoPIzX4P5AbC4MqPLXt-15">
          <mxGeometry relative="1" as="geometry">
            <mxPoint x="121" y="570" as="sourcePoint" />
            <mxPoint x="159" y="645" as="targetPoint" />
          </mxGeometry>
        </mxCell>
        <mxCell id="9NoPIzX4P5AbC4MqPLXt-35" style="rounded=0;orthogonalLoop=1;jettySize=auto;html=1;endArrow=none;endFill=0;" edge="1" parent="1" source="9NoPIzX4P5AbC4MqPLXt-8" target="9NoPIzX4P5AbC4MqPLXt-15">
          <mxGeometry relative="1" as="geometry">
            <mxPoint x="131" y="580" as="sourcePoint" />
            <mxPoint x="169" y="655" as="targetPoint" />
          </mxGeometry>
        </mxCell>
        <mxCell id="9NoPIzX4P5AbC4MqPLXt-36" style="rounded=0;orthogonalLoop=1;jettySize=auto;html=1;endArrow=none;endFill=0;" edge="1" parent="1" source="9NoPIzX4P5AbC4MqPLXt-10" target="9NoPIzX4P5AbC4MqPLXt-15">
          <mxGeometry relative="1" as="geometry">
            <mxPoint x="682" y="560" as="sourcePoint" />
            <mxPoint x="720" y="635" as="targetPoint" />
          </mxGeometry>
        </mxCell>
        <mxCell id="9NoPIzX4P5AbC4MqPLXt-37" style="rounded=0;orthogonalLoop=1;jettySize=auto;html=1;endArrow=none;endFill=0;" edge="1" parent="1" source="9NoPIzX4P5AbC4MqPLXt-9" target="9NoPIzX4P5AbC4MqPLXt-15">
          <mxGeometry relative="1" as="geometry">
            <mxPoint x="692" y="570" as="sourcePoint" />
            <mxPoint x="730" y="645" as="targetPoint" />
          </mxGeometry>
        </mxCell>
        <mxCell id="9NoPIzX4P5AbC4MqPLXt-38" style="rounded=0;orthogonalLoop=1;jettySize=auto;html=1;endArrow=none;endFill=0;" edge="1" parent="1" source="9NoPIzX4P5AbC4MqPLXt-11" target="9NoPIzX4P5AbC4MqPLXt-15">
          <mxGeometry relative="1" as="geometry">
            <mxPoint x="702" y="580" as="sourcePoint" />
            <mxPoint x="740" y="655" as="targetPoint" />
          </mxGeometry>
        </mxCell>
        <mxCell id="9NoPIzX4P5AbC4MqPLXt-39" style="rounded=0;orthogonalLoop=1;jettySize=auto;html=1;endArrow=none;endFill=0;" edge="1" parent="1" source="9NoPIzX4P5AbC4MqPLXt-12" target="9NoPIzX4P5AbC4MqPLXt-15">
          <mxGeometry relative="1" as="geometry">
            <mxPoint x="712" y="590" as="sourcePoint" />
            <mxPoint x="750" y="665" as="targetPoint" />
          </mxGeometry>
        </mxCell>
        <mxCell id="9NoPIzX4P5AbC4MqPLXt-40" style="rounded=0;orthogonalLoop=1;jettySize=auto;html=1;endArrow=none;endFill=0;" edge="1" parent="1" source="9NoPIzX4P5AbC4MqPLXt-13" target="9NoPIzX4P5AbC4MqPLXt-15">
          <mxGeometry relative="1" as="geometry">
            <mxPoint x="722" y="600" as="sourcePoint" />
            <mxPoint x="760" y="675" as="targetPoint" />
          </mxGeometry>
        </mxCell>
        <mxCell id="9NoPIzX4P5AbC4MqPLXt-41" style="rounded=0;orthogonalLoop=1;jettySize=auto;html=1;endArrow=none;endFill=0;" edge="1" parent="1" source="9NoPIzX4P5AbC4MqPLXt-14" target="9NoPIzX4P5AbC4MqPLXt-15">
          <mxGeometry relative="1" as="geometry">
            <mxPoint x="732" y="610" as="sourcePoint" />
            <mxPoint x="770" y="685" as="targetPoint" />
          </mxGeometry>
        </mxCell>
        <mxCell id="9NoPIzX4P5AbC4MqPLXt-59" style="rounded=0;orthogonalLoop=1;jettySize=auto;html=1;endArrow=none;endFill=0;" edge="1" parent="1" source="9NoPIzX4P5AbC4MqPLXt-42" target="9NoPIzX4P5AbC4MqPLXt-57">
          <mxGeometry relative="1" as="geometry" />
        </mxCell>
        <mxCell id="9NoPIzX4P5AbC4MqPLXt-63" style="rounded=0;orthogonalLoop=1;jettySize=auto;html=1;endArrow=none;endFill=0;" edge="1" parent="1" source="9NoPIzX4P5AbC4MqPLXt-42" target="9NoPIzX4P5AbC4MqPLXt-61">
          <mxGeometry relative="1" as="geometry" />
        </mxCell>
        <mxCell id="9NoPIzX4P5AbC4MqPLXt-42" value="" style="image;html=1;image=img/lib/clip_art/networking/Switch_128x128.png" vertex="1" parent="1">
          <mxGeometry x="790" y="710" width="80" height="80" as="geometry" />
        </mxCell>
        <mxCell id="9NoPIzX4P5AbC4MqPLXt-43" style="rounded=0;orthogonalLoop=1;jettySize=auto;html=1;endArrow=none;endFill=0;" edge="1" parent="1" source="9NoPIzX4P5AbC4MqPLXt-14" target="9NoPIzX4P5AbC4MqPLXt-42">
          <mxGeometry relative="1" as="geometry">
            <mxPoint x="1180" y="497" as="sourcePoint" />
            <mxPoint x="600" y="743" as="targetPoint" />
          </mxGeometry>
        </mxCell>
        <mxCell id="9NoPIzX4P5AbC4MqPLXt-44" style="rounded=0;orthogonalLoop=1;jettySize=auto;html=1;endArrow=none;endFill=0;" edge="1" parent="1" source="9NoPIzX4P5AbC4MqPLXt-13" target="9NoPIzX4P5AbC4MqPLXt-42">
          <mxGeometry relative="1" as="geometry">
            <mxPoint x="1090" y="500" as="sourcePoint" />
            <mxPoint x="600" y="740" as="targetPoint" />
          </mxGeometry>
        </mxCell>
        <mxCell id="9NoPIzX4P5AbC4MqPLXt-45" style="rounded=0;orthogonalLoop=1;jettySize=auto;html=1;endArrow=none;endFill=0;" edge="1" parent="1" source="9NoPIzX4P5AbC4MqPLXt-12" target="9NoPIzX4P5AbC4MqPLXt-42">
          <mxGeometry relative="1" as="geometry">
            <mxPoint x="1100" y="510" as="sourcePoint" />
            <mxPoint x="610" y="750" as="targetPoint" />
          </mxGeometry>
        </mxCell>
        <mxCell id="9NoPIzX4P5AbC4MqPLXt-46" style="rounded=0;orthogonalLoop=1;jettySize=auto;html=1;endArrow=none;endFill=0;" edge="1" parent="1" source="9NoPIzX4P5AbC4MqPLXt-11" target="9NoPIzX4P5AbC4MqPLXt-42">
          <mxGeometry relative="1" as="geometry">
            <mxPoint x="1110" y="520" as="sourcePoint" />
            <mxPoint x="620" y="760" as="targetPoint" />
          </mxGeometry>
        </mxCell>
        <mxCell id="9NoPIzX4P5AbC4MqPLXt-47" style="rounded=0;orthogonalLoop=1;jettySize=auto;html=1;endArrow=none;endFill=0;" edge="1" parent="1" source="9NoPIzX4P5AbC4MqPLXt-10" target="9NoPIzX4P5AbC4MqPLXt-42">
          <mxGeometry relative="1" as="geometry">
            <mxPoint x="1120" y="530" as="sourcePoint" />
            <mxPoint x="630" y="770" as="targetPoint" />
          </mxGeometry>
        </mxCell>
        <mxCell id="9NoPIzX4P5AbC4MqPLXt-48" style="rounded=0;orthogonalLoop=1;jettySize=auto;html=1;endArrow=none;endFill=0;" edge="1" parent="1" source="9NoPIzX4P5AbC4MqPLXt-9" target="9NoPIzX4P5AbC4MqPLXt-42">
          <mxGeometry relative="1" as="geometry">
            <mxPoint x="1130" y="540" as="sourcePoint" />
            <mxPoint x="640" y="780" as="targetPoint" />
          </mxGeometry>
        </mxCell>
        <mxCell id="9NoPIzX4P5AbC4MqPLXt-49" style="rounded=0;orthogonalLoop=1;jettySize=auto;html=1;endArrow=none;endFill=0;" edge="1" parent="1" source="9NoPIzX4P5AbC4MqPLXt-8" target="9NoPIzX4P5AbC4MqPLXt-42">
          <mxGeometry relative="1" as="geometry">
            <mxPoint x="1140" y="550" as="sourcePoint" />
            <mxPoint x="650" y="790" as="targetPoint" />
          </mxGeometry>
        </mxCell>
        <mxCell id="9NoPIzX4P5AbC4MqPLXt-50" style="rounded=0;orthogonalLoop=1;jettySize=auto;html=1;endArrow=none;endFill=0;" edge="1" parent="1" source="9NoPIzX4P5AbC4MqPLXt-7" target="9NoPIzX4P5AbC4MqPLXt-42">
          <mxGeometry relative="1" as="geometry">
            <mxPoint x="1150" y="560" as="sourcePoint" />
            <mxPoint x="660" y="800" as="targetPoint" />
          </mxGeometry>
        </mxCell>
        <mxCell id="9NoPIzX4P5AbC4MqPLXt-51" style="rounded=0;orthogonalLoop=1;jettySize=auto;html=1;endArrow=none;endFill=0;" edge="1" parent="1" source="9NoPIzX4P5AbC4MqPLXt-6" target="9NoPIzX4P5AbC4MqPLXt-42">
          <mxGeometry relative="1" as="geometry">
            <mxPoint x="1160" y="570" as="sourcePoint" />
            <mxPoint x="670" y="810" as="targetPoint" />
          </mxGeometry>
        </mxCell>
        <mxCell id="9NoPIzX4P5AbC4MqPLXt-52" style="rounded=0;orthogonalLoop=1;jettySize=auto;html=1;endArrow=none;endFill=0;" edge="1" parent="1" source="9NoPIzX4P5AbC4MqPLXt-5" target="9NoPIzX4P5AbC4MqPLXt-42">
          <mxGeometry relative="1" as="geometry">
            <mxPoint x="1170" y="580" as="sourcePoint" />
            <mxPoint x="680" y="820" as="targetPoint" />
          </mxGeometry>
        </mxCell>
        <mxCell id="9NoPIzX4P5AbC4MqPLXt-53" style="rounded=0;orthogonalLoop=1;jettySize=auto;html=1;endArrow=none;endFill=0;" edge="1" parent="1" source="9NoPIzX4P5AbC4MqPLXt-4" target="9NoPIzX4P5AbC4MqPLXt-42">
          <mxGeometry relative="1" as="geometry">
            <mxPoint x="1180" y="590" as="sourcePoint" />
            <mxPoint x="690" y="830" as="targetPoint" />
          </mxGeometry>
        </mxCell>
        <mxCell id="9NoPIzX4P5AbC4MqPLXt-54" style="rounded=0;orthogonalLoop=1;jettySize=auto;html=1;endArrow=none;endFill=0;" edge="1" parent="1" source="9NoPIzX4P5AbC4MqPLXt-3" target="9NoPIzX4P5AbC4MqPLXt-42">
          <mxGeometry relative="1" as="geometry">
            <mxPoint x="1190" y="600" as="sourcePoint" />
            <mxPoint x="700" y="840" as="targetPoint" />
          </mxGeometry>
        </mxCell>
        <mxCell id="9NoPIzX4P5AbC4MqPLXt-55" style="rounded=0;orthogonalLoop=1;jettySize=auto;html=1;endArrow=none;endFill=0;" edge="1" parent="1" source="9NoPIzX4P5AbC4MqPLXt-2" target="9NoPIzX4P5AbC4MqPLXt-42">
          <mxGeometry relative="1" as="geometry">
            <mxPoint x="1200" y="610" as="sourcePoint" />
            <mxPoint x="710" y="850" as="targetPoint" />
          </mxGeometry>
        </mxCell>
        <mxCell id="9NoPIzX4P5AbC4MqPLXt-56" style="rounded=0;orthogonalLoop=1;jettySize=auto;html=1;endArrow=none;endFill=0;" edge="1" parent="1" source="9NoPIzX4P5AbC4MqPLXt-1" target="9NoPIzX4P5AbC4MqPLXt-42">
          <mxGeometry relative="1" as="geometry">
            <mxPoint x="1210" y="620" as="sourcePoint" />
            <mxPoint x="720" y="860" as="targetPoint" />
          </mxGeometry>
        </mxCell>
        <mxCell id="9NoPIzX4P5AbC4MqPLXt-57" value="" style="shape=mxgraph.cisco.storage.fc_storage;sketch=0;html=1;pointerEvents=1;dashed=0;fillColor=#036897;strokeColor=#ffffff;strokeWidth=2;verticalLabelPosition=bottom;verticalAlign=top;align=center;outlineConnect=0;" vertex="1" parent="1">
          <mxGeometry x="511.5" y="900" width="77" height="43" as="geometry" />
        </mxCell>
        <mxCell id="9NoPIzX4P5AbC4MqPLXt-61" value="" style="shape=mxgraph.cisco.storage.fc_storage;sketch=0;html=1;pointerEvents=1;dashed=0;fillColor=#036897;strokeColor=#ffffff;strokeWidth=2;verticalLabelPosition=bottom;verticalAlign=top;align=center;outlineConnect=0;" vertex="1" parent="1">
          <mxGeometry x="793" y="900" width="77" height="43" as="geometry" />
        </mxCell>
      </root>
    </mxGraphModel>
  </diagram>
</mxfile>
